<svg xmlns="http://www.w3.org/2000/svg" viewBox="0 0 34 48.6">
  <g fill="#FFF">
    <path fill-rule="evenodd" d="M11.7 11.7h10.5v10.4H11.7zm0 11.7h10.5v10.5H11.7zM23.5 0H34v10.5H23.5zM11.7 0h10.5v10.5H11.7zM0 0h10.5v10.5H0zm0 40.1v1.6h2.4v6.9h2v-6.9h2.3v-1.6m4.4 1.7c-.1.4-.1 1-.2 1.5s-.1 1.1-.2 1.7c0 .6-.1 1.2-.1 1.8 0 .6-.1 1.2-.1 1.7H12c0-.7 0-1.4.1-2.2 0-.8.1-1.5.1-2.3l.3.9c.1.3.2.7.3 1l.3.9c.1.3.2.5.3.8h1l.3-.8.3-.9c.1-.3.2-.7.4-1l.3-.9c.1.8.1 1.6.1 2.4 0 .8.1 1.5.1 2.2h1.5c0-.5-.1-1.1-.1-1.7 0-.6-.1-1.2-.1-1.8 0-.6-.1-1.2-.2-1.7-.1-.6-.1-1.1-.2-1.5h-1.3c-.1.2-.2.5-.3.8-.1.3-.3.6-.4 1-.1.4-.3.7-.4 1.1-.1.4-.3.7-.4 1-.1-.3-.2-.7-.4-1-.1-.4-.3-.7-.4-1.1-.1-.3-.3-.7-.4-1-.1-.3-.2-.6-.3-.8h-1.4zm8 0h1.5v6.8h-1.5zm-11.7 0h1.5v6.8H7.4zm19.3 1.3v-1.3h-4.6v6.8h1.6v-3h2.4v-1.3h-2.4v-1.2" clip-rule="evenodd"/>
    <path d="M29.9 48.6v-2.8l-1.4-2.1-1.2-1.9H29s.2.1.9 1.3c.6 1 .8 1.4.8 1.4s.1-.4.8-1.4c.6-1 .9-1.3.9-1.3H34l-2.6 4v2.8h-1.5z"/>
  </g>
</svg>
